<svg width="1786" height="770" viewBox="0 0 1786 770" fill="none" xmlns="http://www.w3.org/2000/svg">
<path d="M1600.08 586.277C1600.08 586.937 1588.53 597.702 1586.5 603.826C1585.75 606.095 1586.3 607.727 1589.23 607.972C1597.91 608.695 1608.22 595.618 1612.28 588.989" stroke="black" stroke-width="5" stroke-linecap="round"/>
<path d="M1586.52 578.143C1582.19 584.869 1574.64 595.235 1568.02 601.115C1568.62 605.635 1573.16 612.505 1586.5 603.827C1588.53 597.703 1600.08 586.938 1600.08 586.278" stroke="black" stroke-width="5" stroke-linecap="round"/>
<path d="M1574.77 571.814C1566.48 580.703 1551.45 599.746 1557.6 604.808C1558.68 605.705 1560.07 605.792 1561.66 605.267C1563.56 604.64 1565.73 603.145 1568.02 601.115C1574.64 595.234 1582.19 584.868 1586.52 578.142" stroke="black" stroke-width="5" stroke-linecap="round"/>
<path d="M1641.66 588.989C1627.8 572.116 1584.71 541.533 1559.4 563.679C1549.31 573.472 1536.73 591.171 1543.96 598.403C1547.58 601.115 1555.4 597.499 1560.45 590.267" stroke="black" stroke-width="5" stroke-linecap="round"/>
<path d="M1481.98 395.608C1492.77 401.625 1516.83 410.048 1526.79 395.608C1539.24 377.557 1550.44 398.966 1545.46 412.819C1540.48 426.671 1498.22 449.729 1469.84 399.154" stroke="black" stroke-width="5" stroke-linecap="round"/>
<path d="M1475.96 476.671C1481.83 477.061 1496.86 473.447 1510.07 455.881" stroke="black" stroke-width="5" stroke-linecap="round"/>
<path d="M1506.69 431.927C1505.71 437.397 1505.93 446.681 1510.07 455.881C1513.57 463.657 1519.88 471.371 1530.65 476.671" stroke="black" stroke-width="5" stroke-linecap="round"/>
<path d="M1522.51 429.667C1530.19 436.145 1542.85 453.531 1537.43 476.671" stroke="black" stroke-width="5" stroke-linecap="round"/>
<path d="M1500.82 428.311C1492.08 432.68 1475.42 446.57 1478.67 467.18" stroke="black" stroke-width="5" stroke-linecap="round"/>
<path d="M1625.31 400.894C1719.78 400.894 1720.05 517.501 1768.14 564.505" stroke="black" stroke-width="5" stroke-linecap="round"/>
<path d="M1494.74 168.179C1452.22 174.32 1436.86 226.244 1434.5 251.438C1422.35 291.415 1423.43 324.611 1431.99 349.46C1433.42 355.759 1430.01 366.821 1404.97 360.68C1379.93 354.538 1390.6 311.669 1399.06 291.001C1403.79 280.136 1404.97 260.099 1404.97 251.438C1395.99 134.757 1467.37 122.12 1504.19 130.387C1492.85 137.946 1493.16 158.731 1494.74 168.179Z" fill="black"/>
<path d="M1643.52 195.379C1625.18 100.82 1515.13 104.955 1481.99 133.914C1444.72 181.194 1539.98 298.212 1566.01 286.983C1584.47 272.799 1598.32 280.482 1602.1 286.983C1619.14 316.297 1595 332.687 1580.8 337.218C1584.59 357.549 1535.84 379.77 1542.94 395.136C1580.8 443.007 1696.77 364.995 1668.96 341.355C1646.72 322.443 1647.92 298.213 1648.25 286.983C1650.03 227.293 1648.25 222.565 1643.52 195.379Z" fill="black"/>
<path d="M1479.78 323.608C1458.29 318.959 1469.63 309.662 1474.41 291.066" stroke="black" stroke-width="5" stroke-linecap="round"/>
<ellipse cx="5.40673" cy="8.11009" rx="5.40673" ry="8.11009" transform="matrix(-0.981591 0.190995 0.190995 0.981591 1451.9 263.459)" fill="black"/>
<ellipse cx="5.33499" cy="8.00249" rx="5.33499" ry="8.00249" transform="matrix(-0.988875 0.148746 0.148746 0.988875 1512.54 278.979)" fill="black"/>
<path d="M1589.16 296.489C1591.2 300.105 1594.07 308.783 1589.16 314.568" stroke="black" stroke-width="5" stroke-linecap="round"/>
<path d="M1548.48 388.595C1499.45 388.595 1472.28 420.906 1429.16 349.821" stroke="black" stroke-width="5" stroke-linecap="round"/>
<path d="M1485.21 356.581C1473.74 360.118 1464.57 356.581 1461.7 348.918" stroke="black" stroke-width="5" stroke-linecap="round"/>
<path d="M1486.8 288.354C1486.8 302.739 1497.08 313.876 1509.16 313.876C1521.23 313.876 1531.52 302.739 1531.52 288.354C1531.52 273.969 1521.23 262.832 1509.16 262.832C1497.08 262.832 1486.8 273.969 1486.8 288.354Z" stroke="black" stroke-width="5"/>
<path d="M1426.24 272.988C1426.24 287.373 1436.52 298.51 1448.6 298.51C1460.67 298.51 1470.95 287.373 1470.95 272.988C1470.95 258.602 1460.67 247.466 1448.6 247.466C1436.52 247.466 1426.24 258.602 1426.24 272.988Z" stroke="black" stroke-width="5"/>
<path d="M1471.65 276.131C1475.33 275.353 1483.73 275.08 1487.92 280.219" stroke="black" stroke-width="5" stroke-linecap="round"/>
<path d="M1530.93 279.534L1549.23 280.124" stroke="black" stroke-width="5" stroke-linecap="round"/>
<path d="M867.368 410.309V487.143" stroke="black" stroke-width="5" stroke-linecap="round"/>
<path d="M925.219 419.348V492.566" stroke="black" stroke-width="5" stroke-linecap="round"/>
<path d="M694.386 399.022L706.4 617.35C706.692 622.651 711.075 626.8 716.385 626.8H1052.62C1058.14 626.8 1062.62 622.323 1062.62 616.8V393.778C1062.62 388.203 1058.06 383.704 1052.48 383.779L704.236 388.474C698.551 388.55 694.073 393.345 694.386 399.022Z" fill="black"/>
<rect x="704.66" y="629.964" width="357.957" height="17.1747" rx="8.58735" fill="black"/>
<path d="M926.123 288.278C957.61 287.826 1026.91 311.78 1054.48 387.258" stroke="black" stroke-width="5" stroke-linecap="round"/>
<path d="M856.973 287.825C785.11 301.836 750.761 332.57 723.643 391.777" stroke="black" stroke-width="5" stroke-linecap="round"/>
<path d="M1115.05 367.448L1139 347.562" stroke="black" stroke-width="5" stroke-linecap="round"/>
<path d="M1097.42 359.313L1115.05 329.936" stroke="black" stroke-width="5" stroke-linecap="round"/>
<path d="M1118.66 381.007C1123.33 382.815 1133.94 384.532 1139 376.939" stroke="black" stroke-width="5" stroke-linecap="round"/>
<path d="M683.87 349.293L667.599 307.26" stroke="black" stroke-width="5" stroke-linecap="round"/>
<path d="M656.3 353.813L629.182 325.791" stroke="black" stroke-width="5" stroke-linecap="round"/>
<path d="M649.52 369.632L629.182 361.948" stroke="black" stroke-width="5" stroke-linecap="round"/>
<path d="M636.865 605.354C641.43 605.199 646.524 604.986 652.196 604.702C686.876 602.968 686.353 578.92 681.333 565.659C680.919 564.564 680.242 563.57 679.423 562.734C646.767 529.442 618.014 539.843 606.406 550.222C605.579 550.962 604.929 551.905 604.45 552.905C586.294 590.809 592.605 602.708 599.491 604.464C600.836 604.807 602.253 604.94 603.629 605.113C607.658 605.62 617.491 606.011 636.865 605.354ZM636.865 605.354C634.756 597.135 633.159 576.811 643.645 561.264" stroke="black" stroke-width="5" stroke-linecap="round"/>
<path d="M1650.17 586.575H1783.05" stroke="black" stroke-width="5" stroke-linecap="round"/>
<path d="M1524.98 586.575H1396.62" stroke="black" stroke-width="5" stroke-linecap="round"/>
<path d="M1187.81 586.575H1291.31" stroke="black" stroke-width="5" stroke-linecap="round"/>
<path d="M569.522 586.575H471.898" stroke="black" stroke-width="5" stroke-linecap="round"/>
<path d="M310.094 690.604L263.089 758.85" stroke="black" stroke-width="5" stroke-linecap="round"/>
<path d="M1072.56 437.955C1089.28 464.169 1108.27 495.355 1072.56 554.033" stroke="black" stroke-width="5" stroke-linecap="round"/>
<path d="M1126.72 609.963C1118.38 608.393 1102.11 611.202 1111.85 631.494C1119.28 646.97 1130.77 655.044 1134.15 658.408" stroke="black" stroke-width="5" stroke-linecap="round"/>
<path d="M1146.72 678.115C1128.38 662.549 1128.27 622.847 1130.79 602.118C1130.94 600.846 1132.25 600.084 1133.47 600.481C1151.44 606.338 1173.02 603.2 1183.65 600.323C1184.85 599.996 1186.09 600.82 1186.23 602.063C1191.69 650.795 1177.98 672.559 1170.3 678.134C1170.22 678.195 1170.14 678.243 1170.04 678.288C1165.76 680.372 1155.41 683.18 1146.99 678.305C1146.9 678.25 1146.81 678.186 1146.72 678.115Z" stroke="black" stroke-width="5" stroke-linecap="round"/>
<ellipse cx="1158.55" cy="599.652" rx="28.9258" ry="5.42359" fill="black"/>
<path d="M1165.04 580.67C1169.87 576.385 1176.63 563.004 1165.04 543.762C1153.44 524.521 1166.13 506.717 1173.92 500.22" stroke="black" stroke-width="5" stroke-linecap="round"/>
<path d="M1151.32 561.687C1144.59 552.616 1134.05 530.516 1145.69 514.683" stroke="black" stroke-width="5" stroke-linecap="round"/>
<path d="M1200.04 678.506C1212.66 671.576 1190.07 672.911 1177.74 673.091L1171.21 679.589C1184.81 682.295 1195.14 680.671 1200.04 678.506Z" fill="black"/>
<path d="M926.575 290.537C930.643 278.786 926.937 270.879 923.322 269.372C901.627 289.259 868.724 281.876 856.521 269.824C852.182 273.801 854.713 285.566 856.52 289.182C880.023 315.215 913.468 300.631 926.575 290.537Z" fill="black"/>
<path d="M830.307 362.852L836.271 353.697C844.098 341.684 859.33 336.888 872.626 342.25L885.807 347.565C897.746 352.379 911.426 349.039 919.804 339.265L938.327 317.655" stroke="black" stroke-width="5" stroke-linecap="round"/>
<path d="M688.841 454.601C682.062 470.57 674.017 509.288 696.073 536.406" stroke="black" stroke-width="5" stroke-linecap="round"/>
<path d="M988.896 105.779C978.952 141.484 973.981 144.648 959.518 160.466C959.518 144.833 956.832 118.592 956.832 107.666C909.476 107.666 869.51 88.3339 855.446 78.668C855.95 111.448 825.219 132.881 825.219 132.881C825.219 132.881 829.627 146.119 832.146 175.747C834.161 199.449 828.368 194.869 825.219 189.615C816.151 160.366 801.289 168.182 794.991 175.747C717.717 50.1868 836.554 25.9259 859.224 28.2373C876.352 13.6124 900.24 2.15156 917.033 0.470546C977.596 -5.59205 1005.02 47.8837 988.896 105.779Z" fill="black"/>
<path d="M826.278 211.963C834.413 261.63 889.018 297.343 928.422 257.11C967.826 216.877 959.941 143.231 955.731 108.865" stroke="black" stroke-width="5" stroke-linecap="round"/>
<path d="M794.098 172.67C789.127 184.873 793.791 211.914 826.278 211.914" stroke="black" stroke-width="5" stroke-linecap="round"/>
<path d="M808.426 179.372C807.707 181.983 808.283 188.17 816.335 192.027" stroke="black" stroke-width="5" stroke-linecap="round"/>
<path d="M954.636 205.586C965.24 201.166 972.715 184.796 969.839 158.582" stroke="black" stroke-width="5" stroke-linecap="round"/>
<path d="M894.977 235.416C905.372 238.128 904.714 230.666 912.603 224.117" stroke="black" stroke-width="5" stroke-linecap="round"/>
<circle cx="926.008" cy="172.276" r="6.77949" fill="black"/>
<circle cx="866.349" cy="173.18" r="6.77949" fill="black"/>
<path d="M851.588 157.678C853.015 153.477 859.17 145.706 872.378 148.227" stroke="black" stroke-width="5" stroke-linecap="round"/>
<path d="M914.863 149.542C918.013 146.814 926.581 142.994 935.654 149.542" stroke="black" stroke-width="5" stroke-linecap="round"/>
<path d="M892.994 168.525C891.942 177.451 891.226 195.551 896.784 196.547" stroke="black" stroke-width="5" stroke-linecap="round"/>
<path d="M1310.3 587.105C1308.03 567.669 1298.3 562.476 1341.02 480.53C1359.53 445.007 1395.96 436.545 1420.26 444.937C1439.36 451.53 1451.51 473.179 1400.35 571.742" stroke="black" stroke-width="5" stroke-linecap="round"/>
<path d="M1434.59 442.022C1441.67 434.188 1455.65 414.001 1454.92 395.922" stroke="black" stroke-width="5" stroke-linecap="round"/>
<path d="M1390.74 432.079C1390.74 430.723 1408.37 417.164 1402.95 395.922C1401.25 389.258 1394.18 363.471 1397.07 354.793" stroke="black" stroke-width="5" stroke-linecap="round"/>
<path d="M244.436 333.39C248.936 282.61 226.972 255.9 215.427 248.893C252.773 269.954 289.577 256.266 303.311 246.79L307.519 269.354C333.106 271.937 339.202 237.231 339.051 219.555C338.818 192.284 308.667 158.611 248.688 172.114C188.71 185.617 155.793 235.261 146.831 258.395C103.888 246.581 57.7566 278.731 40.0591 296.283C21.7594 314.502 -16.7675 369.581 10.286 431.079C46.7855 514.05 143.875 493.446 159.722 485.285C214.479 457.086 238.812 396.865 244.436 333.39Z" fill="black"/>
<path d="M326.5 324.034C325.224 332.653 322.036 340.021 318.053 344.976C314.024 349.988 309.566 352.13 305.628 351.547C301.692 350.963 298.045 347.62 295.642 341.653C293.266 335.756 292.349 327.779 293.626 319.16C294.901 310.541 298.09 303.173 302.073 298.218C306.102 293.205 310.561 291.063 314.498 291.646C318.435 292.231 322.082 295.573 324.484 301.54C326.86 307.437 327.777 315.414 326.5 324.034Z" stroke="black" stroke-width="5"/>
<path d="M310.328 331.448C313.099 331.858 315.945 328.145 316.684 323.153C317.423 318.161 315.776 313.781 313.005 313.37C310.233 312.959 307.387 316.673 306.648 321.665C305.909 326.657 307.556 331.037 310.328 331.448Z" fill="black"/>
<path d="M244.587 329.139L291.494 324.883" stroke="black" stroke-width="5" stroke-linecap="round"/>
<path d="M312.681 270.241C316.733 278.402 328.686 296.237 341.168 306.218C353.933 316.427 355.011 329.441 346.861 338.817L334.156 353.568C341.168 407.211 330.838 446.934 265.13 465.425" stroke="black" stroke-width="5" stroke-linecap="round"/>
<path d="M264.351 378.066C265.903 378.296 267.348 377.224 267.578 375.67C267.808 374.117 266.736 372.67 265.183 372.44C263.631 372.21 262.185 373.283 261.955 374.837C261.726 376.39 262.797 377.836 264.351 378.066Z" fill="black"/>
<path d="M254.167 404.153C256.03 404.43 257.728 403.394 257.957 401.84C258.187 400.286 256.863 398.804 255 398.527C253.136 398.251 251.439 399.286 251.209 400.84C250.98 402.393 252.304 403.877 254.167 404.153Z" fill="black"/>
<path d="M278.949 399.779C280.812 400.056 282.508 399.02 282.739 397.466C282.968 395.913 281.644 394.43 279.781 394.153C277.918 393.877 276.221 394.912 275.991 396.466C275.761 398.019 277.084 399.503 278.949 399.779Z" fill="black"/>
<path d="M330.431 517.564L351.466 495.205C355.273 490.976 365.17 486.383 374.305 501.852C383.442 517.321 380.116 533.677 377.311 539.922" stroke="black" stroke-width="5" stroke-linecap="round"/>
<path d="M441.52 480.277C443.606 477.458 444.715 474.98 445.108 473.262C447.11 469.755 448.306 461.661 436.699 458.649C418.679 453.973 421.683 465.079 425.287 465.663C437.299 467.066 442.316 477.159 441.52 480.277Z" stroke="black" stroke-width="5" stroke-linecap="round"/>
<path d="M380.287 527.993C382.089 521.796 391.22 507.419 413.329 499.487C428.219 494.145 436.678 486.441 440.981 480.276" stroke="black" stroke-width="5" stroke-linecap="round"/>
<path d="M412.801 482.205C407.338 479.293 393.622 475.916 382.454 485.698" stroke="black" stroke-width="5" stroke-linecap="round"/>
<path d="M430.142 482.446C424.801 472.976 411.037 456.754 398.712 467.623" stroke="black" stroke-width="5" stroke-linecap="round"/>
<path d="M368.365 485.698C373.288 471.227 383.752 452.347 418.221 449.911" stroke="black" stroke-width="5" stroke-linecap="round"/>
<path d="M459.797 540.753C462.292 537.269 463.545 534.097 462.408 531.906C459.101 525.538 450.97 532.074 447.317 536.139C438.227 545.918 420.732 562.914 425.448 543.136C430.162 523.356 420.134 524.574 396.651 548.718L373.307 562.921" stroke="black" stroke-width="5" stroke-linecap="round"/>
<path d="M457.889 571.766C459.899 577.951 456.674 592.269 427.114 595.738C415.93 597.05 414.249 596.866 403.752 595.98H385.771" stroke="black" stroke-width="5" stroke-linecap="round"/>
<path d="M439.962 559.39C445.771 555.107 455.034 547.333 459.789 540.691C464.952 540.632 469.952 543.543 461.983 553.72C458.534 558.126 452.653 563.893 443.302 571.372" stroke="black" stroke-width="5" stroke-linecap="round"/>
<path d="M443.31 571.435C452.662 563.957 458.542 558.189 461.992 553.783C466.918 555.172 471.35 560.546 457.889 571.766C454.945 574.219 451.145 576.953 446.308 579.985" stroke="black" stroke-width="5" stroke-linecap="round"/>
<path d="M159.948 496.134C80.3274 554.247 89.8546 626.717 89.8546 716.28" stroke="black" stroke-width="5" stroke-linecap="round"/>
<path d="M162.116 497.12L200.339 530.588C201.58 531.676 203.532 531.032 203.884 529.419L213.849 483.821C214.219 482.13 216.321 481.531 217.524 482.776L243.403 509.542" stroke="black" stroke-width="5" stroke-linecap="round"/>
<path d="M243.403 470.107C245.523 474.082 248.562 480.542 251.41 488.05C255.318 498.355 258.867 510.636 259.184 521.176" stroke="black" stroke-width="5" stroke-linecap="round"/>
<path d="M251.41 488.05L322.844 526.366" stroke="black" stroke-width="5" stroke-linecap="round"/>
<path d="M195.714 562.838C208.768 580.532 282.285 629.529 335.188 575.769L349.617 560.117" stroke="black" stroke-width="5" stroke-linecap="round"/>
<path d="M231.48 735.801C248.465 731.406 329.024 687.265 352.487 646.25" stroke="black" stroke-width="5" stroke-linecap="round"/>
<path d="M346.198 592.93C352.016 613.831 353.653 631.474 352.487 646.25C365.431 637.362 377.796 630.527 377.796 602.5C377.796 582.675 363.371 565.586 350.318 560.117" stroke="black" stroke-width="5" stroke-linecap="round"/>
<path d="M237.984 546.02C240.976 546.02 243.403 543.108 243.403 539.514C243.403 535.92 240.976 533.007 237.984 533.007C234.991 533.007 232.564 535.92 232.564 539.514C232.564 543.108 234.991 546.02 237.984 546.02Z" fill="black"/>
<path d="M245.57 577.469C248.563 577.469 250.989 574.556 250.989 570.962C250.989 567.368 248.563 564.455 245.57 564.455C242.578 564.455 240.151 567.368 240.151 570.962C240.151 574.556 242.578 577.469 245.57 577.469Z" fill="black"/>
<path d="M303.141 397.448C302.443 401.678 304.257 410.418 317.102 411.546" stroke="black" stroke-width="5" stroke-linecap="round"/>
<path d="M414.6 431.774C407.663 439.582 422.733 450.213 426.994 456.414C433.064 454.679 449.286 457.804 446.035 468.107C451.996 461.419 473.127 444.791 476.921 439.911C484.929 429.608 474.066 421.476 466.622 413.341C461.659 407.919 454.702 397.075 441.695 407.919C431.941 416.052 421.536 423.966 414.6 431.774Z" stroke="black" stroke-width="5"/>
<path d="M436.113 543.716L425.953 526.17C425.7 525.732 425.782 525.176 426.154 524.833C432.926 518.569 447.362 505.521 456.972 497.864C457.456 497.478 458.157 497.575 458.508 498.083C463.921 505.946 474.803 524.949 480 545.616C480.064 545.873 480.035 546.141 479.908 546.374C476.722 552.194 474.037 555.647 467.534 559.442" stroke="black" stroke-width="5" stroke-linecap="round"/>
<path d="M1490.4 762.014C1482.08 747.551 1508.63 745.442 1522.94 746.196V756.591L1569.49 762.014C1546.59 768.041 1498.72 776.477 1490.4 762.014Z" fill="black"/>
<path d="M1592.54 742.58L1574.92 760.659" stroke="black" stroke-width="5" stroke-linecap="round"/>
<path d="M1570.85 705.519L1525.2 702.355" stroke="black" stroke-width="5" stroke-linecap="round"/>
<path d="M1543.73 690.604L1592.54 692.863" stroke="black" stroke-width="5" stroke-linecap="round"/>
<path d="M1524.3 702.355L1522.04 754.784" stroke="black" stroke-width="5" stroke-linecap="round"/>
<path d="M1592.54 693.768V741.676" stroke="black" stroke-width="5" stroke-linecap="round"/>
<path d="M1574.92 722.241V760.658" stroke="black" stroke-width="5" stroke-linecap="round"/>
<path d="M1524.3 702.355L1543.73 690.604" stroke="black" stroke-width="5" stroke-linecap="round"/>
<path d="M1574.92 760.659L1521.59 755.235" stroke="black" stroke-width="5" stroke-linecap="round"/>
<path d="M1314.36 714.558C1314.82 701.903 1365.44 705.971 1368.6 706.423V714.558L1383.97 725.405C1360.62 726.008 1314 724.682 1314.36 714.558Z" fill="black"/>
<path d="M1440.01 713.202V667.102" stroke="black" stroke-width="5" stroke-linecap="round"/>
<path d="M1400.69 724.953V674.333" stroke="black" stroke-width="5" stroke-linecap="round"/>
<path d="M1368.15 713.202V662.582" stroke="black" stroke-width="5" stroke-linecap="round"/>
<path d="M1368.15 662.582L1403.85 653.543" stroke="black" stroke-width="5" stroke-linecap="round"/>
<path d="M1440.01 666.649L1400.69 673.881" stroke="black" stroke-width="5" stroke-linecap="round"/>
<path d="M1400.69 725.405L1440.01 713.654" stroke="black" stroke-width="5" stroke-linecap="round"/>
<path d="M1440.01 666.65L1403.85 653.543" stroke="black" stroke-width="5" stroke-linecap="round"/>
<path d="M1368.15 663.034L1401.14 673.881" stroke="black" stroke-width="5" stroke-linecap="round"/>
<path d="M447.494 729.925C447.946 717.27 498.566 721.338 501.729 721.79V729.925L517.096 740.772C493.745 741.375 447.132 740.05 447.494 729.925Z" fill="black"/>
<path d="M573.14 728.569V682.469" stroke="black" stroke-width="5" stroke-linecap="round"/>
<path d="M533.819 740.32V689.7" stroke="black" stroke-width="5" stroke-linecap="round"/>
<path d="M501.277 728.569V677.949" stroke="black" stroke-width="5" stroke-linecap="round"/>
<path d="M533.819 740.773L573.14 729.021" stroke="black" stroke-width="5" stroke-linecap="round"/>
<path d="M573.14 682.017L533.819 689.248" stroke="black" stroke-width="5" stroke-linecap="round"/>
<path d="M501.277 677.948L536.983 668.909" stroke="black" stroke-width="5" stroke-linecap="round"/>
<path d="M573.14 682.016L536.982 668.909" stroke="black" stroke-width="5" stroke-linecap="round"/>
<path d="M501.277 678.401L534.271 689.249" stroke="black" stroke-width="5" stroke-linecap="round"/>
<path d="M558.985 635.917L540.11 665.485C539.428 666.553 539.899 667.978 541.082 668.429L571.556 680.058C572.469 680.406 573.5 680.044 573.995 679.201L591.814 648.827C592.445 647.752 591.949 646.368 590.78 645.938L561.362 635.116C560.48 634.792 559.491 635.125 558.985 635.917Z" stroke="black" stroke-width="5"/>
<path d="M506.738 630.041L513.969 646.312" stroke="black" stroke-width="5" stroke-linecap="round"/>
<path d="M481.428 639.08L504.93 658.967" stroke="black" stroke-width="5" stroke-linecap="round"/>
<path d="M480.524 665.294L494.987 673.429" stroke="black" stroke-width="5" stroke-linecap="round"/>
</svg>
