<svg width="824" height="773" viewBox="0 0 824 773" fill="none" xmlns="http://www.w3.org/2000/svg">
<path d="M350.036 606.589C340.488 557.305 375.892 444.739 394.786 394.616C401.084 397.597 453.791 387.33 470.697 362.821C484.223 343.213 507.192 335.512 518.432 332.018C533.349 327.381 558.211 328.043 562.852 339.305L567.824 350.897C584.067 397.597 569.923 468.586 559.868 500.271L522.742 506.895C494.631 461.322 509.04 405.767 519.758 383.686C508.355 399.055 476.333 415.261 461.748 421.444C461.085 462.182 398.764 602.614 385.173 611.556C374.301 618.71 357.218 611.226 350.036 606.589Z" fill="black"/>
<path d="M373.846 614.707L369.205 623.141M354.616 609.361L345.76 632.746L345.001 634.75C344.158 636.775 343.574 640.171 345.001 643.064C346.007 645.104 348.012 646.895 351.632 647.779C360.385 649.917 393.298 652.234 408.66 653.124C411.313 653.458 416.353 652.189 415.291 644.439C414.23 636.688 408.66 629.595 402.361 626.733C397.25 624.411 384.074 620.807 369.205 623.141L354.616 609.361ZM364.563 624.06C366.123 623.686 367.673 623.382 369.205 623.141L364.563 624.06Z" stroke="black" stroke-width="5" stroke-linecap="round"/>
<path d="M528.036 505.098C527.704 514.926 528.599 534.274 531.027 537.232C534.018 540.876 537.674 541.207 559.94 534.25C577.754 528.685 584.866 528.619 589.186 527.956C592.177 527.497 595.833 527.095 595.833 519.674C595.833 510.398 592.177 504.104 580.878 502.779C571.838 501.719 558.944 507.196 553.627 510.067V501.123" stroke="black" stroke-width="5" stroke-linecap="round"/>
<path d="M485.497 171.655C451.358 175.105 384.275 189.646 389.048 220.208C389.779 222.803 391.882 226.944 395.8 230.839C399.575 234.59 405.035 238.114 412.58 239.809" stroke="black" stroke-width="5" stroke-linecap="round"/>
<path d="M395.8 230.838C406.476 247.449 437.769 283.526 477.543 294.954" stroke="black" stroke-width="5" stroke-linecap="round"/>
<path d="M477.287 294.954C479.718 291.688 486.107 285.785 493.608 285.505" stroke="black" stroke-width="5" stroke-linecap="round"/>
<path d="M493.608 285.505C493.387 276.178 485.518 252.123 455.811 230.527" stroke="black" stroke-width="5" stroke-linecap="round"/>
<path d="M447.221 238.258C450.304 233.266 459.775 222.669 472.992 220.218" stroke="black" stroke-width="5" stroke-linecap="round"/>
<path d="M521.097 228.809C522.529 230.501 525.393 235.104 525.393 239.976" stroke="black" stroke-width="5" stroke-linecap="round"/>
<path d="M520.76 300.118C527.53 299.787 541.668 298.794 544.065 297.47C547.062 295.815 547.727 295.815 547.727 292.504C547.727 289.195 520.76 294.822 520.76 284.229C523.202 281.802 527.153 276.351 523.424 273.967C519.695 271.584 511.882 278.492 508.442 282.243C504.891 285.995 496.922 291.909 493.46 285.553" stroke="black" stroke-width="5" stroke-linecap="round"/>
<path d="M478.146 294.822C481.142 303.539 491.929 319.184 511.105 312.035C530.282 304.885 531.081 301.111 529.083 300.118" stroke="black" stroke-width="5" stroke-linecap="round"/>
<path d="M643.304 298.531C647.964 297.257 658.149 291.332 661.611 277.82C665.073 264.308 660.391 264.242 657.617 265.897" stroke="black" stroke-width="5" stroke-linecap="round"/>
<path d="M625.994 288.75C627.436 281.242 632.518 266.759 641.306 268.878" stroke="black" stroke-width="5" stroke-linecap="round"/>
<path d="M629.656 276.495C623.531 271.461 619.781 283.008 618.671 289.412C611.748 291.531 609.129 301.555 608.685 306.302C624.707 307.945 636.093 303.642 643.304 298.531C647.718 295.402 650.568 291.969 651.958 289.412C655.398 280.249 660.413 261.129 652.956 257.95C645.5 254.77 643.414 261.923 643.304 265.897C644.102 274.906 639.42 284.885 636.979 288.749" stroke="black" stroke-width="5" stroke-linecap="round"/>
<path d="M533.124 300.01C547.548 313.478 582.854 333.591 608.685 306.302" stroke="black" stroke-width="5" stroke-linecap="round"/>
<path d="M530.547 301.827C530.547 308.08 529.001 322.331 522.815 329.316" stroke="black" stroke-width="5" stroke-linecap="round"/>
<path d="M395.678 316.43C382.065 334.805 363.007 376.335 395.678 395.461" stroke="black" stroke-width="5" stroke-linecap="round"/>
<path d="M802.861 237.399L810.592 224.514" stroke="black" stroke-width="5" stroke-linecap="round"/>
<path d="M806.639 244.135L820.9 243.472" stroke="black" stroke-width="5" stroke-linecap="round"/>
<path d="M803.72 252.003L812.31 263.17" stroke="black" stroke-width="5" stroke-linecap="round"/>
<path d="M522.918 656.613H290.876V770" stroke="black" stroke-width="5" stroke-linecap="round"/>
<path d="M684.251 543.56H494.369V681.811" stroke="black" stroke-width="5" stroke-linecap="round"/>
<path d="M809.733 385.083H655.702V569.751" stroke="black" stroke-width="5" stroke-linecap="round"/>
<path d="M782.512 264.458V410.943" stroke="black" stroke-width="5" stroke-linecap="round"/>
<path d="M782.512 213.346V225.802" stroke="black" stroke-width="5" stroke-linecap="round"/>
<path d="M481.616 303.146L291.449 325.02C269.451 307.397 274.775 281.088 280.186 270.136L412.375 254.291" stroke="black" stroke-width="5" stroke-linecap="round"/>
<path d="M546.882 297.865L612.149 291.593" stroke="black" stroke-width="5" stroke-linecap="round"/>
<path d="M659.856 284.66L702.593 281.689L759.909 255.71C753.018 248.394 756.798 241.878 759.668 239.546L702.593 226.231L476.647 245.048" stroke="black" stroke-width="5" stroke-linecap="round"/>
<path d="M259.708 270.409L279.08 268.324C265.645 298.423 281.046 318.9 290.876 326.867L268.267 330.175C249.369 307.159 254.24 281.403 259.708 270.409Z" fill="black"/>
<path d="M761.971 257.157C754.78 249.652 758.821 240.715 761.816 237.829L789.116 244.566L761.971 257.157Z" fill="black"/>
<path d="M703.213 226.231C696.082 235.284 686.099 258.954 703.213 281.21" stroke="black" stroke-width="5"/>
<path d="M538.979 177.451C544.661 173.954 587.406 177.324 595.716 123.557C609.943 123.723 617.68 112.069 606.824 107.081C595.251 101.114 596.12 90.1574 598.216 83.7019C601.55 75.2359 601.751 66.3474 601.032 64.4883" stroke="black" stroke-width="5" stroke-linecap="round"/>
<path d="M583.173 104.141C584.788 104.16 586.119 102.212 586.148 99.7902C586.176 97.3686 584.89 95.3901 583.276 95.3712C581.661 95.3522 580.33 97.3001 580.301 99.7217C580.273 102.143 581.559 104.122 583.173 104.141Z" fill="black"/>
<path d="M575.237 86.3939C577.611 83.8562 583.749 80.1446 589.311 85.5967" stroke="black" stroke-width="5" stroke-linecap="round"/>
<path d="M559.112 135.802C563.475 142.515 568.264 144.421 577.569 140.089" stroke="black" stroke-width="5" stroke-linecap="round"/>
<path d="M523.398 88.7466C522.387 90.9663 521.541 96.0054 526.239 98.4038" stroke="black" stroke-width="5" stroke-linecap="round"/>
<path d="M473.321 65.9528C467.786 96.2383 485.106 119.036 497.662 136.562C511.072 129.317 533.052 112.088 524.622 110.229C515.762 108.274 506.417 84.1067 515.021 76.7138C525.116 68.0401 534.216 81.1638 535.95 91.115L544.081 77.0542C541.781 67.2196 540.88 49.9681 555.667 59.6394C570.453 69.3105 592.143 66.7772 601.14 64.3016C618.879 51.6046 646.438 21.9881 614.767 5.09873C588.425 -8.94856 554.147 8.81102 533.223 24.7689C519.055 21.0288 480.869 24.6597 473.321 65.9528Z" fill="black"/>
<path d="M498.647 134.533C505.051 142.242 508.232 148.644 507.836 161.905" stroke="black" stroke-width="5" stroke-linecap="round"/>
<path d="M491.523 179.658C489.281 171.838 487.967 156.921 500.647 159.821C516.497 163.444 548.804 179.118 546.437 187.806" stroke="black" stroke-width="5" stroke-linecap="round"/>
<path d="M546.439 200.031C558.036 210.769 560.613 217.641 562.331 230.527" stroke="black" stroke-width="5" stroke-linecap="round"/>
<path d="M3.09985 548.329C18.8534 546.894 55.9744 556.288 80.7713 604.601C81.4199 605.864 83.2488 605.898 83.8949 604.634C109.33 554.84 140.547 504.33 239.219 565.146C240.736 566.081 242.727 564.388 241.975 562.772C225.966 528.341 217.315 462.679 291.914 430.104C293.411 429.451 293.344 427.227 291.778 426.768L272.481 421.128C270.712 420.611 270.905 418.184 272.74 418.019C292.619 416.228 320.662 417.395 311.007 429.123C299.735 442.816 296.963 451.475 299.711 465.771" stroke="black" stroke-width="5" stroke-linecap="round"/>
</svg>
