<svg width="794" height="773" viewBox="0 0 794 773" fill="none" xmlns="http://www.w3.org/2000/svg">
<path d="M1.72333 752.418C-6.59011 745.045 30.3479 745.591 48.5792 745.25C51.2045 748.937 53.1369 749.005 57.8771 749.858C60.0648 755.489 10.0368 759.789 1.72333 752.418Z" fill="black"/>
<path d="M285.97 195.188C284.279 201.307 283.019 221.187 289.658 237.501" stroke="black" stroke-width="5" stroke-linecap="round"/>
<path d="M280.591 241.499C296.346 235.853 326.349 228.944 326.349 248.474V251.864C326.349 254.152 328.963 255.448 330.771 254.047C356.065 234.45 407.528 195.188 425.662 165.469" stroke="black" stroke-width="5" stroke-linecap="round"/>
<path d="M350.413 90.4146C365.89 102.6 389.913 128.902 366.564 139.602C365.195 140.229 364.439 141.746 364.83 143.193C369.423 160.205 368.697 195.332 333.059 219.121C332.529 219.474 332.12 220 331.927 220.605L324.918 242.538" stroke="black" stroke-width="5" stroke-linecap="round"/>
<path d="M335.094 180.077C334.544 182.495 335.972 187.491 346.075 188.136" stroke="black" stroke-width="5" stroke-linecap="round"/>
<path d="M362.194 116.608C362.194 121.906 360.591 126.565 358.169 129.819C355.747 133.072 352.68 134.742 349.601 134.742C346.521 134.742 343.454 133.072 341.032 129.819C338.61 126.565 337.008 121.906 337.008 116.608C337.008 111.31 338.61 106.651 341.032 103.397C343.454 100.144 346.521 98.4741 349.601 98.4741C352.68 98.4741 355.747 100.144 358.169 103.397C360.591 106.651 362.194 111.31 362.194 116.608Z" stroke="black" stroke-width="5" stroke-linecap="round"/>
<path d="M303.762 132.727L334.993 121.645" stroke="black" stroke-width="5" stroke-linecap="round"/>
<path d="M327.941 111.571C328.736 108.213 331.663 100.488 337.008 96.459" stroke="black" stroke-width="5" stroke-linecap="round"/>
<path d="M351.112 119.63C353.337 119.63 355.141 118.277 355.141 116.608C355.141 114.939 353.337 113.585 351.112 113.585C348.886 113.585 347.082 114.939 347.082 116.608C347.082 118.277 348.886 119.63 351.112 119.63Z" fill="black"/>
<path d="M337.407 450.07C335.552 430.265 334.068 386.563 342.974 370.188C351.881 353.811 360.438 330.387 366.456 320.91C386.695 309.226 434.931 264.399 465.96 178.565" stroke="black" stroke-width="5" stroke-linecap="round"/>
<path d="M280.591 240.523L164.735 376.527" stroke="black" stroke-width="5" stroke-linecap="round"/>
<path d="M164.735 376.945C173.325 375.785 195.654 376.347 216.266 387.888C242.032 402.314 269.311 427.685 337.008 450.07" stroke="black" stroke-width="5" stroke-linecap="round"/>
<path d="M337.008 450.07L313.836 466.189" stroke="black" stroke-width="5" stroke-linecap="round"/>
<path d="M164.749 376.527C163.179 381.392 161.621 392.739 174.81 406.751" stroke="black" stroke-width="5" stroke-linecap="round"/>
<path d="M249.36 277.798C230.612 293.415 183.072 326.361 142.897 333.213C133.524 337.075 117.387 347.922 127.832 360.415C138.278 372.91 145.241 388.124 147.418 394.168C149.092 399.71 153.259 407.437 163.303 389.704" stroke="black" stroke-width="5" stroke-linecap="round"/>
<path d="M131.49 365.446C123.707 370.036 105.557 378.806 95.2229 377.173C84.8892 375.542 78.0001 379.893 75.8473 382.273C74.688 384.142 73.9594 387.984 80.3185 388.392C86.6776 388.8 94.2293 388.561 97.21 388.392" stroke="black" stroke-width="5" stroke-linecap="round"/>
<path d="M105.296 381.564C101.81 385.47 89.958 394.348 70.4363 398.609C66.6185 399.319 61.4724 403.402 68.4445 408.197C74.4204 411.926 90.9539 408.517 99.3204 403.402" stroke="black" stroke-width="5" stroke-linecap="round"/>
<path d="M99.2296 402.721C92.8268 405.944 81.3018 414.526 86.4241 423.073C88.0658 424.769 94.9938 424.904 109.572 411.879L120.408 402.721" stroke="black" stroke-width="5" stroke-linecap="round"/>
<path d="M120.95 402.915L109.887 412.156C106.702 420.542 101.841 440.908 114.916 429.612C124.47 419.858 122.459 411.541 126.482 409.076C130.504 406.612 139.556 397.097 143.579 392.646" stroke="black" stroke-width="5" stroke-linecap="round"/>
<path d="M121.425 386.602C120.084 390.749 119.012 400.384 125.445 405.743" stroke="black" stroke-width="5" stroke-linecap="round"/>
<path d="M243.316 726.109C249.653 724.43 262.427 715.934 262.827 695.383C263.228 674.831 271.666 639.47 275.834 624.358L316.859 443.019" stroke="black" stroke-width="5" stroke-linecap="round"/>
<path d="M331.97 150.861C333.083 150.861 333.985 150.185 333.985 149.35C333.985 148.515 333.083 147.839 331.97 147.839C330.858 147.839 329.955 148.515 329.955 149.35C329.955 150.185 330.858 150.861 331.97 150.861Z" fill="black"/>
<path d="M338.519 156.906C339.353 156.906 340.03 156.454 340.03 155.898C340.03 155.342 339.353 154.891 338.519 154.891C337.684 154.891 337.008 155.342 337.008 155.898C337.008 156.454 337.684 156.906 338.519 156.906Z" fill="black"/>
<path d="M323.911 160.936C324.467 160.936 324.918 160.033 324.918 158.921C324.918 157.808 324.467 156.906 323.911 156.906C323.354 156.906 322.903 157.808 322.903 158.921C322.903 160.033 323.354 160.936 323.911 160.936Z" fill="black"/>
<path d="M175.056 136.424C199.54 90.9171 236.097 85.1955 251.317 88.0224C282.924 39.6205 326.573 23.6531 353.164 38.124C374.437 49.7001 357.011 78.8744 345.638 92.0149L334.601 76.0476C326.975 90.8174 305.168 85.3616 294.463 82.035C303.661 101.329 318.345 151.196 287.439 196.304C256.535 241.412 217.702 242.21 198.134 229.237C180.073 216.43 150.573 181.933 175.056 136.424Z" fill="black"/>
<path d="M162.72 732.154C166.06 737.381 177.182 747.246 194.959 744.894" stroke="black" stroke-width="5" stroke-linecap="round"/>
<path d="M190.718 379.55C184.415 397.581 154.882 434.645 128.502 481.227C110.916 510.444 68.9737 575.69 41.8972 602.938C38.2472 608.113 34.8293 619.866 50.3586 625.476C62.3041 630.484 67.6796 642.105 69.2724 654.527C71.2633 670.054 96.6476 681.573 113.57 670.054C127.059 660.871 165.844 594.732 195.145 557.358C202.605 547.842 209.451 540.191 215.107 535.821" stroke="black" stroke-width="5" stroke-linecap="round"/>
<path d="M195.869 557.867L162.72 732.154C179.569 727.659 225.854 719.169 254.397 719.169" stroke="black" stroke-width="5" stroke-linecap="round"/>
<path d="M30.8805 717.749C3.42101 664.521 28.8758 629.099 42.6425 620.328C63.9838 627.04 64.5605 649.416 68.0213 660.045L60.034 681.916C54.6892 691.323 57.8069 709.725 60.034 717.749C69.2658 754.926 55.3321 758.5 48.4941 748.544L30.8805 717.749Z" fill="black"/>
<path d="M177.288 766.56C168.038 759.234 186.332 756.395 204.895 755.325C211.362 761.107 254.317 763.081 256.412 764.419C236.651 770.843 185.394 772.978 177.288 766.56Z" fill="black"/>
<path d="M270.195 763.423C200.065 773.038 185.51 745.3 186.999 729.084C199.06 724.047 232.226 722.216 247.861 721.072C243.393 731.602 248.977 730.228 252.885 733.09C257.912 736.524 271.87 740.721 279.688 741.102C314.865 742.82 287.319 760.943 270.195 763.423Z" fill="black"/>
<path d="M435.397 76.79C438.61 74.9431 445.236 74.2714 446.042 86.3607" stroke="black" stroke-width="5" stroke-linecap="round"/>
<path d="M428.915 109.028C429.251 104.328 428.915 93.6147 424.886 88.376C419.848 81.8276 418.841 69.2346 428.915 70.2421C432.113 70.5619 434.148 73.2189 435.397 76.7904C437.296 82.2195 437.38 89.7618 436.975 94.4206" stroke="black" stroke-width="5" stroke-linecap="round"/>
<path d="M422.583 122.125C422.175 117.591 420.453 107.114 416.826 101.472C412.293 94.4203 411.789 76.2864 421.36 78.3013" stroke="black" stroke-width="5" stroke-linecap="round"/>
<path d="M428.915 156.378C426.397 156.378 421.057 153.96 419.848 144.289C418.639 134.617 414.307 128.506 412.293 126.658C411.117 123.804 409.875 117.894 414.307 117.088C416.918 116.613 420.005 119.143 422.583 122.125L426.9 128.17" stroke="black" stroke-width="5" stroke-linecap="round"/>
<path d="M452.086 111.547C453.262 109.365 454.404 103.789 449.568 98.954C443.523 92.9093 445.034 87.3684 448.56 85.8572C452.086 84.3461 457.124 85.3535 462.161 100.465C467.198 113.562 474.653 146.807 466.191 175.015" stroke="black" stroke-width="5" stroke-linecap="round"/>
<path d="M475.098 32.7283L483.002 18.3589" stroke="black" stroke-width="5" stroke-linecap="round"/>
<path d="M406.752 39.5151L420.856 48.5821" stroke="black" stroke-width="5" stroke-linecap="round"/>
<path d="M432.342 3L446.14 34.7252" stroke="black" stroke-width="5" stroke-linecap="round"/>
<path d="M481.182 76.3072C481.182 65.7306 483.642 48.0751 496.436 64.0649C504.308 75.5577 507.261 98.4432 501.356 110.035" stroke="black" stroke-width="5" stroke-linecap="round"/>
<path d="M455.104 86.0509C453.463 80.2214 452.643 69.3616 462.484 72.5595L473.309 94.5456" stroke="black" stroke-width="5" stroke-linecap="round"/>
<path d="M473.309 94.5457L462.484 72.5597C461.664 66.0638 465.929 55.5705 476.262 64.065L481.182 76.3073L486.103 88.5495" stroke="black" stroke-width="5" stroke-linecap="round"/>
<path d="M486.339 125.651C483.653 131.528 480.799 144.893 490.873 151.341" stroke="black" stroke-width="5" stroke-linecap="round"/>
<path d="M498.932 117.088C501.283 110.372 508.402 97.04 518.074 97.443C527.745 97.846 520.089 110.539 518.074 115.073L503.97 142.777C500.947 150.333 496.414 163.934 506.992 179.549C517.57 193.653 554.047 229.921 593.338 235.966" stroke="black" stroke-width="5" stroke-linecap="round"/>
<path d="M586.076 446.52C589.098 457.267 600.18 482.184 620.329 495.885M554.845 428.89L594.639 440.476L554.845 428.89ZM592.624 460.625C596.989 446.352 602.598 410.958 590.106 383.555C574.49 349.303 564.92 305.479 572.475 276.263C578.52 252.891 600.515 249.398 610.758 250.573C626.877 252.423 654.682 271.73 653.071 324.117C651.056 389.6 635.944 445.513 614.284 488.833L592.624 460.625Z" stroke="black" stroke-width="5" stroke-linecap="round"/>
<path d="M576.505 484.3C576.505 458.61 576.337 440.476 573.483 433.424C612.169 447.931 659.115 444.17 677.753 440.476C678.257 441.652 682.387 452.867 694.879 488.329C710.495 532.657 699.413 680.75 694.879 697.373C690.346 713.996 678.257 714.499 660.626 712.485C646.522 710.873 627.885 672.187 620.329 653.046C585.068 587.058 576.505 514.443 576.505 484.3Z" fill="black"/>
<path d="M713.284 350.345C718.281 362.603 729.584 393.766 734.822 420.362C720.382 430.605 679.768 450.047 631.411 444.002L554.845 428.89C551.823 403.537 551.468 338.961 571.617 281.336C571.617 276.131 576.908 261.555 588.594 255.107" stroke="black" stroke-width="5" stroke-linecap="round"/>
<path d="M708.983 394.134C708.768 390.9 714.737 367.369 713.284 350.345C712.474 340.852 711.439 329.009 710.14 314.581C706.513 274.284 692.173 243.389 685.458 232.979C678.741 222.569 662.851 216.321 650.258 220.854" stroke="black" stroke-width="5" stroke-linecap="round"/>
<path d="M699.314 664.082C703.656 569.604 684.399 480.337 673.723 445.513C700.647 441.879 721.856 430.241 729.636 426.372C737.453 455.846 748.892 531.517 753.596 566.173C765.322 604.125 762.824 658.699 760.11 681.242C761.847 694.969 750.702 700.42 744.911 701.43C714.079 711.523 701.666 680.737 699.314 664.082Z" fill="black"/>
<path d="M454.101 84.3462C462.665 98.1146 475.358 131.494 465.687 179.045C466.526 189.288 481.473 223.157 492.888 238.484C510.518 262.159 547.289 288.856 569.957 296.412" stroke="black" stroke-width="5" stroke-linecap="round"/>
<path d="M610.387 228.122C603.723 224.02 553.595 227.974 543.849 164.917C527.163 165.112 518.09 151.445 530.822 145.595C544.393 138.597 543.375 125.748 540.916 118.177C537.006 108.249 536.771 97.8243 537.613 95.644" stroke="black" stroke-width="5" stroke-linecap="round"/>
<path d="M557.692 142.252C555.309 142.28 553.342 139.404 553.301 135.828C553.259 132.253 555.157 129.331 557.541 129.303C559.925 129.276 561.891 132.152 561.933 135.727C561.975 139.303 560.076 142.224 557.692 142.252Z" fill="black"/>
<path d="M567.865 121.333C565.082 118.358 557.883 114.005 551.359 120.399" stroke="black" stroke-width="5" stroke-linecap="round"/>
<path d="M586.775 179.278C581.659 187.151 576.042 189.386 565.131 184.306" stroke="black" stroke-width="5" stroke-linecap="round"/>
<path d="M628.66 124.093C629.845 126.696 630.838 132.606 625.328 135.419" stroke="black" stroke-width="5" stroke-linecap="round"/>
<path d="M687.388 97.3614C693.879 132.879 673.567 159.615 658.841 180.169C643.114 171.673 617.339 151.467 627.224 149.286C637.616 146.994 648.575 118.652 638.484 109.982C626.645 99.8093 615.973 115.2 613.94 126.871L604.404 110.381C607.1 98.847 608.158 78.6152 590.817 89.9573C573.476 101.299 548.039 98.3282 537.488 95.4249C516.685 80.5344 484.363 45.8014 521.506 25.9942C552.399 9.52016 592.598 30.3479 617.137 49.0627C633.753 44.6764 678.537 48.9345 687.388 97.3614Z" fill="black"/>
<path d="M657.687 177.79C650.176 186.831 646.446 194.338 646.91 209.89" stroke="black" stroke-width="5" stroke-linecap="round"/>
<path d="M704.319 772.672C641.858 775.19 612.138 762.659 612.138 754.034C612.138 750.508 610.123 746.982 624.227 741.945C618.183 750.173 620.399 765.821 677.622 762.597C686.856 763.101 707.643 760.683 716.912 746.982H721.445C766.78 735.397 793.477 744.907 793.477 753.53C793.477 762.155 756.202 770.58 704.319 772.672Z" fill="black"/>
<path d="M716.024 746.761C749.762 749.985 754.018 722.918 751.928 708.982" stroke="black" stroke-width="5" stroke-linecap="round"/>
<path d="M671.334 722.079C671.334 724.262 670.83 729.03 668.815 730.642C666.296 732.657 620.962 727.62 621.969 750.287C621.465 753.478 626.502 758.347 638.592 759.858C655.595 761.984 704.336 768.189 716.025 746.761C716.705 745.514 717.26 744.172 717.676 742.732L722.209 723.59" stroke="black" stroke-width="5" stroke-linecap="round"/>
</svg>
